<?xml version="1.0" encoding="utf-8"?>
<!-- Generator: Adobe Illustrator 17.0.0, SVG Export Plug-In . SVG Version: 6.00 Build 0)  -->
<!DOCTYPE svg PUBLIC "-//W3C//DTD SVG 1.1//EN" "http://www.w3.org/Graphics/SVG/1.1/DTD/svg11.dtd">
<svg version="1.1" id="Layer_1" xmlns="http://www.w3.org/2000/svg" xmlns:xlink="http://www.w3.org/1999/xlink" x="0px" y="0px"
	 width="126px" height="95px" viewBox="0 0 126 95" enable-background="new 0 0 126 95" xml:space="preserve">
<rect fill="#EFF0F1" width="126" height="95"/>
<rect fill="#454545" width="126" height="24.571"/>
<g>
	<path fill="#777879" d="M19.65,14.684h18.711c1.093,0,1.981-0.884,1.981-1.981c0-1.096-0.888-1.981-1.981-1.981H19.65
		c-1.093,0-1.981,0.884-1.981,1.981C17.67,13.798,18.558,14.684,19.65,14.684z"/>
</g>
<circle fill="#2DB998" cx="9.668" cy="12.703" r="4.001"/>
<g>
	<path fill="#777879" d="M59.312,14.685h18.711c1.093,0,1.981-0.884,1.981-1.981c0-1.096-0.888-1.981-1.981-1.981H59.312
		c-1.093,0-1.981,0.884-1.981,1.981C57.332,13.799,58.219,14.685,59.312,14.685z"/>
</g>
<circle fill="#2DB998" cx="49.33" cy="12.704" r="4.001"/>
<g>
	<path fill="#777879" d="M99.784,14.684h18.711c1.093,0,1.981-0.884,1.981-1.981c0-1.096-0.888-1.981-1.981-1.981H99.784
		c-1.093,0-1.981,0.884-1.981,1.981C97.804,13.798,98.692,14.684,99.784,14.684z"/>
</g>
<circle fill="#2DB998" cx="89.801" cy="12.703" r="4.001"/>
<rect x="5.454" y="84.617" fill="#444444" width="115.438" height="4.327"/>
<rect x="5.454" y="29.662" fill="#444444" width="115.438" height="9.571"/>
<g>
	<path fill="#BDC3C7" d="M6.527,76.538h86.49c0.592,0,1.073-0.475,1.073-1.062s-0.481-1.062-1.073-1.062H6.527
		c-0.592,0-1.073,0.475-1.073,1.062S5.935,76.538,6.527,76.538z"/>
	<path fill="#BDC3C7" d="M6.527,66.538h86.49c0.592,0,1.073-0.475,1.073-1.062s-0.481-1.062-1.073-1.062H6.527
		c-0.592,0-1.073,0.475-1.073,1.062S5.935,66.538,6.527,66.538z"/>
	<path fill="#BDC3C7" d="M6.527,55.538h86.49c0.592,0,1.073-0.475,1.073-1.062s-0.481-1.062-1.073-1.062H6.527
		c-0.592,0-1.073,0.475-1.073,1.062S5.935,55.538,6.527,55.538z"/>
	<path fill="#BDC3C7" d="M6.527,60.783h113.308c0.592,0,1.073-0.475,1.073-1.062s-0.481-1.062-1.073-1.062H6.527
		c-0.592,0-1.073,0.475-1.073,1.062C5.454,60.308,5.935,60.783,6.527,60.783z"/>
	<path fill="#BDC3C7" d="M6.527,71.783h113.308c0.592,0,1.073-0.475,1.073-1.062s-0.481-1.062-1.073-1.062H6.527
		c-0.592,0-1.073,0.475-1.073,1.062S5.935,71.783,6.527,71.783z"/>
	<path fill="#BDC3C7" d="M6.527,81.783h113.308c0.592,0,1.073-0.475,1.073-1.062s-0.481-1.062-1.073-1.062H6.527
		c-0.592,0-1.073,0.475-1.073,1.062S5.935,81.783,6.527,81.783z"/>
	<path fill="#BDC3C7" d="M6.527,45.783h113.308c0.592,0,1.073-0.475,1.073-1.062s-0.481-1.062-1.073-1.062H6.527
		c-0.592,0-1.073,0.475-1.073,1.062C5.454,45.308,5.935,45.783,6.527,45.783z"/>
	<path fill="#BDC3C7" d="M6.527,50.783h113.308c0.592,0,1.073-0.475,1.073-1.062s-0.481-1.062-1.073-1.062H6.527
		c-0.592,0-1.073,0.475-1.073,1.062C5.454,50.308,5.935,50.783,6.527,50.783z"/>
</g>
</svg>
