<?xml version="1.0" encoding="utf-8"?>
<!-- Generator: Adobe Illustrator 17.0.0, SVG Export Plug-In . SVG Version: 6.00 Build 0)  -->
<!DOCTYPE svg PUBLIC "-//W3C//DTD SVG 1.1//EN" "http://www.w3.org/Graphics/SVG/1.1/DTD/svg11.dtd">
<svg version="1.1" id="Layer_1" xmlns="http://www.w3.org/2000/svg" xmlns:xlink="http://www.w3.org/1999/xlink" x="0px" y="0px"
	 width="126px" height="95px" viewBox="0 0 126 95" enable-background="new 0 0 126 95" xml:space="preserve">
<rect fill="#EFF0F1" width="126" height="95"/>
<rect fill="#454545" width="126" height="24.571"/>
<g>
	<path fill="#777879" d="M7.312,19.939h18.711c1.093,0,1.981-0.884,1.981-1.981c0-1.096-0.888-1.981-1.981-1.981H7.312
		c-1.093,0-1.981,0.884-1.981,1.981C5.332,19.052,6.22,19.939,7.312,19.939z"/>
</g>
<circle fill="#2DB998" cx="16.668" cy="8.766" r="4.001"/>
<g>
	<path fill="#777879" d="M38.984,19.814h18.711c1.093,0,1.981-0.884,1.981-1.981c0-1.096-0.888-1.981-1.981-1.981H38.984
		c-1.093,0-1.981,0.884-1.981,1.981C37.004,18.927,37.892,19.814,38.984,19.814z"/>
</g>
<circle fill="#2DB998" cx="48.34" cy="8.641" r="4.001"/>
<g>
	<path fill="#777879" d="M69.656,19.939h18.711c1.093,0,1.981-0.884,1.981-1.981c0-1.096-0.888-1.981-1.981-1.981H69.656
		c-1.093,0-1.981,0.884-1.981,1.981C67.676,19.052,68.564,19.939,69.656,19.939z"/>
</g>
<circle fill="#2DB998" cx="79.012" cy="8.766" r="4.001"/>
<g>
	<path fill="#777879" d="M100.342,19.939h18.711c1.093,0,1.981-0.884,1.981-1.981c0-1.096-0.888-1.981-1.981-1.981h-18.711
		c-1.093,0-1.981,0.884-1.981,1.981C98.361,19.052,99.249,19.939,100.342,19.939z"/>
</g>
<circle fill="#2DB998" cx="109.697" cy="8.766" r="4.001"/>
<rect x="5.454" y="84.617" fill="#444444" width="115.438" height="4.327"/>
<rect x="5.454" y="29.662" fill="#444444" width="115.438" height="9.571"/>
<g>
	<path fill="#BDC3C7" d="M6.527,76.538h86.49c0.592,0,1.073-0.475,1.073-1.062s-0.481-1.062-1.073-1.062H6.527
		c-0.592,0-1.073,0.475-1.073,1.062S5.935,76.538,6.527,76.538z"/>
	<path fill="#BDC3C7" d="M6.527,66.538h86.49c0.592,0,1.073-0.475,1.073-1.062s-0.481-1.062-1.073-1.062H6.527
		c-0.592,0-1.073,0.475-1.073,1.062S5.935,66.538,6.527,66.538z"/>
	<path fill="#BDC3C7" d="M6.527,55.538h86.49c0.592,0,1.073-0.475,1.073-1.062c0-0.587-0.481-1.062-1.073-1.062H6.527
		c-0.592,0-1.073,0.475-1.073,1.062C5.454,55.063,5.935,55.538,6.527,55.538z"/>
	<path fill="#BDC3C7" d="M6.527,60.783h113.308c0.592,0,1.073-0.475,1.073-1.062c0-0.587-0.481-1.062-1.073-1.062H6.527
		c-0.592,0-1.073,0.475-1.073,1.062C5.454,60.308,5.935,60.783,6.527,60.783z"/>
	<path fill="#BDC3C7" d="M6.527,71.783h113.308c0.592,0,1.073-0.475,1.073-1.062s-0.481-1.062-1.073-1.062H6.527
		c-0.592,0-1.073,0.475-1.073,1.062S5.935,71.783,6.527,71.783z"/>
	<path fill="#BDC3C7" d="M6.527,81.783h113.308c0.592,0,1.073-0.475,1.073-1.062s-0.481-1.062-1.073-1.062H6.527
		c-0.592,0-1.073,0.475-1.073,1.062S5.935,81.783,6.527,81.783z"/>
	<path fill="#BDC3C7" d="M6.527,45.783h113.308c0.592,0,1.073-0.475,1.073-1.062c0-0.587-0.481-1.062-1.073-1.062H6.527
		c-0.592,0-1.073,0.475-1.073,1.062C5.454,45.308,5.935,45.783,6.527,45.783z"/>
	<path fill="#BDC3C7" d="M6.527,50.783h113.308c0.592,0,1.073-0.475,1.073-1.062c0-0.587-0.481-1.062-1.073-1.062H6.527
		c-0.592,0-1.073,0.475-1.073,1.062C5.454,50.308,5.935,50.783,6.527,50.783z"/>
</g>
</svg>
