<?xml version="1.0" encoding="utf-8"?>
<!-- Generator: Adobe Illustrator 17.0.0, SVG Export Plug-In . SVG Version: 6.00 Build 0)  -->
<!DOCTYPE svg PUBLIC "-//W3C//DTD SVG 1.1//EN" "http://www.w3.org/Graphics/SVG/1.1/DTD/svg11.dtd">
<svg version="1.1" id="Layer_1" xmlns="http://www.w3.org/2000/svg" xmlns:xlink="http://www.w3.org/1999/xlink" x="0px" y="0px"
	 width="126px" height="95px" viewBox="0 0 126 95" enable-background="new 0 0 126 95" xml:space="preserve">
<rect fill="#EFF0F1" width="126" height="95"/>
<rect fill="#454545" width="45.167" height="95"/>
<circle fill="#2DB998" cx="9.285" cy="11.799" r="4.001"/>
<rect x="52.454" y="83.617" fill="#444444" width="67.199" height="4.327"/>
<rect x="52.454" y="8.662" fill="#2DB998" width="67.199" height="9.571"/>
<g>
	<path fill="#BDC3C7" d="M53.527,55.538h38.49c0.592,0,1.073-0.475,1.073-1.062s-0.481-1.062-1.073-1.062h-38.49
		c-0.592,0-1.073,0.475-1.073,1.062S52.935,55.538,53.527,55.538z"/>
	<path fill="#BDC3C7" d="M53.527,45.538h38.49c0.592,0,1.073-0.475,1.073-1.062s-0.481-1.062-1.073-1.062h-38.49
		c-0.592,0-1.073,0.475-1.073,1.062S52.935,45.538,53.527,45.538z"/>
	<path fill="#BDC3C7" d="M53.527,34.538h38.49c0.592,0,1.073-0.475,1.073-1.062s-0.481-1.062-1.073-1.062h-38.49
		c-0.592,0-1.073,0.475-1.073,1.062S52.935,34.538,53.527,34.538z"/>
	<path fill="#BDC3C7" d="M53.527,39.783h65.308c0.592,0,1.073-0.475,1.073-1.062s-0.481-1.062-1.073-1.062H53.527
		c-0.592,0-1.073,0.475-1.073,1.062C52.454,39.308,52.935,39.783,53.527,39.783z"/>
	<path fill="#BDC3C7" d="M53.527,50.783h65.308c0.592,0,1.073-0.475,1.073-1.062s-0.481-1.062-1.073-1.062H53.527
		c-0.592,0-1.073,0.475-1.073,1.062S52.935,50.783,53.527,50.783z"/>
	<path fill="#BDC3C7" d="M53.527,65.783h65.308c0.592,0,1.073-0.475,1.073-1.062s-0.481-1.062-1.073-1.062H53.527
		c-0.592,0-1.073,0.475-1.073,1.062S52.935,65.783,53.527,65.783z"/>
	<path fill="#BDC3C7" d="M53.527,70.783h65.308c0.592,0,1.073-0.475,1.073-1.062s-0.481-1.062-1.073-1.062H53.527
		c-0.592,0-1.073,0.475-1.073,1.062S52.935,70.783,53.527,70.783z"/>
	<path fill="#BDC3C7" d="M53.527,60.783h65.308c0.592,0,1.073-0.475,1.073-1.062s-0.481-1.062-1.073-1.062H53.527
		c-0.592,0-1.073,0.475-1.073,1.062S52.935,60.783,53.527,60.783z"/>
	<path fill="#BDC3C7" d="M53.527,80.783h65.308c0.592,0,1.073-0.475,1.073-1.062s-0.481-1.062-1.073-1.062H53.527
		c-0.592,0-1.073,0.475-1.073,1.062S52.935,80.783,53.527,80.783z"/>
	<path fill="#BDC3C7" d="M53.527,75.783h65.308c0.592,0,1.073-0.475,1.073-1.062s-0.481-1.062-1.073-1.062H53.527
		c-0.592,0-1.073,0.475-1.073,1.062S52.935,75.783,53.527,75.783z"/>
	<path fill="#BDC3C7" d="M53.527,24.783h65.308c0.592,0,1.073-0.475,1.073-1.062s-0.481-1.062-1.073-1.062H53.527
		c-0.592,0-1.073,0.475-1.073,1.062S52.935,24.783,53.527,24.783z"/>
	<path fill="#BDC3C7" d="M53.527,29.783h65.308c0.592,0,1.073-0.475,1.073-1.062s-0.481-1.062-1.073-1.062H53.527
		c-0.592,0-1.073,0.475-1.073,1.062S52.935,29.783,53.527,29.783z"/>
</g>
<g>
	<path fill="#777879" d="M18.312,13.78h18.711c1.093,0,1.981-0.884,1.981-1.981c0-1.096-0.888-1.981-1.981-1.981H18.312
		c-1.093,0-1.981,0.884-1.981,1.981C16.332,12.894,17.22,13.78,18.312,13.78z"/>
</g>
<circle fill="#2DB998" cx="9.285" cy="28.799" r="4.001"/>
<g>
	<path fill="#777879" d="M18.312,30.78h18.711c1.093,0,1.981-0.884,1.981-1.981c0-1.096-0.888-1.981-1.981-1.981H18.312
		c-1.093,0-1.981,0.884-1.981,1.981C16.332,29.893,17.22,30.78,18.312,30.78z"/>
</g>
<circle fill="#2DB998" cx="9.285" cy="46.659" r="4.001"/>
<g>
	<path fill="#777879" d="M18.312,48.64h18.711c1.093,0,1.981-0.884,1.981-1.981c0-1.096-0.888-1.981-1.981-1.981H18.312
		c-1.093,0-1.981,0.884-1.981,1.981C16.332,47.753,17.22,48.64,18.312,48.64z"/>
</g>
<circle fill="#2DB998" cx="9.16" cy="64.849" r="4.001"/>
<g>
	<path fill="#777879" d="M18.187,66.83h18.711c1.093,0,1.981-0.884,1.981-1.981c0-1.096-0.888-1.981-1.981-1.981H18.187
		c-1.093,0-1.981,0.884-1.981,1.981C16.207,65.943,17.095,66.83,18.187,66.83z"/>
</g>
<circle fill="#2DB998" cx="9.16" cy="82.849" r="4.001"/>
<g>
	<path fill="#777879" d="M18.187,84.83h18.711c1.093,0,1.981-0.884,1.981-1.981c0-1.096-0.888-1.981-1.981-1.981H18.187
		c-1.093,0-1.981,0.884-1.981,1.981C16.207,83.943,17.095,84.83,18.187,84.83z"/>
</g>
</svg>
