<?xml version="1.0" encoding="utf-8"?>
<!-- Generator: Adobe Illustrator 17.0.0, SVG Export Plug-In . SVG Version: 6.00 Build 0)  -->
<!DOCTYPE svg PUBLIC "-//W3C//DTD SVG 1.1//EN" "http://www.w3.org/Graphics/SVG/1.1/DTD/svg11.dtd">
<svg version="1.1" id="Layer_1" xmlns="http://www.w3.org/2000/svg" xmlns:xlink="http://www.w3.org/1999/xlink" x="0px" y="0px"
	 width="126px" height="95px" viewBox="0 0 126 95" enable-background="new 0 0 126 95" xml:space="preserve">
<rect fill="#EFF0F1" width="126" height="95"/>
<rect fill="#454545" width="126" height="16.908"/>
<g display="none">
	<path display="inline" fill="#777879" d="M7.312,19.939h18.711c1.093,0,1.981-0.884,1.981-1.981c0-1.096-0.888-1.981-1.981-1.981
		H7.312c-1.093,0-1.981,0.884-1.981,1.981C5.332,19.052,6.22,19.939,7.312,19.939z"/>
</g>
<circle fill="#2DB998" cx="16.668" cy="8.766" r="4.001"/>
<g display="none">
	<path display="inline" fill="#777879" d="M38.984,19.814h18.711c1.093,0,1.981-0.884,1.981-1.981c0-1.096-0.888-1.981-1.981-1.981
		H38.984c-1.093,0-1.981,0.884-1.981,1.981C37.004,18.927,37.892,19.814,38.984,19.814z"/>
</g>
<circle fill="#2DB998" cx="48.34" cy="8.641" r="4.001"/>
<g display="none">
	<path display="inline" fill="#777879" d="M69.656,19.939h18.711c1.093,0,1.981-0.884,1.981-1.981c0-1.096-0.888-1.981-1.981-1.981
		H69.656c-1.093,0-1.981,0.884-1.981,1.981C67.676,19.052,68.564,19.939,69.656,19.939z"/>
</g>
<circle fill="#2DB998" cx="79.012" cy="8.766" r="4.001"/>
<g display="none">
	<path display="inline" fill="#777879" d="M100.342,19.939h18.711c1.093,0,1.981-0.884,1.981-1.981c0-1.096-0.888-1.981-1.981-1.981
		h-18.711c-1.093,0-1.981,0.884-1.981,1.981C98.361,19.052,99.249,19.939,100.342,19.939z"/>
</g>
<circle fill="#2DB998" cx="109.697" cy="8.766" r="4.001"/>
<rect x="5.454" y="84.617" display="none" fill="#444444" width="115.438" height="4.327"/>
<rect x="5.454" y="29.662" display="none" fill="#444444" width="115.438" height="9.571"/>
<g display="none">
	<path display="inline" fill="#BDC3C7" d="M6.527,76.538h86.49c0.592,0,1.073-0.475,1.073-1.062s-0.481-1.062-1.073-1.062H6.527
		c-0.592,0-1.073,0.475-1.073,1.062S5.935,76.538,6.527,76.538z"/>
	<path display="inline" fill="#BDC3C7" d="M6.527,66.538h86.49c0.592,0,1.073-0.475,1.073-1.062s-0.481-1.062-1.073-1.062H6.527
		c-0.592,0-1.073,0.475-1.073,1.062S5.935,66.538,6.527,66.538z"/>
	<path display="inline" fill="#BDC3C7" d="M6.527,55.538h86.49c0.592,0,1.073-0.475,1.073-1.062s-0.481-1.062-1.073-1.062H6.527
		c-0.592,0-1.073,0.475-1.073,1.062S5.935,55.538,6.527,55.538z"/>
	<path display="inline" fill="#BDC3C7" d="M6.527,60.783h113.308c0.592,0,1.073-0.475,1.073-1.062s-0.481-1.062-1.073-1.062H6.527
		c-0.592,0-1.073,0.475-1.073,1.062C5.454,60.308,5.935,60.783,6.527,60.783z"/>
	<path display="inline" fill="#BDC3C7" d="M6.527,71.783h113.308c0.592,0,1.073-0.475,1.073-1.062s-0.481-1.062-1.073-1.062H6.527
		c-0.592,0-1.073,0.475-1.073,1.062S5.935,71.783,6.527,71.783z"/>
	<path display="inline" fill="#BDC3C7" d="M6.527,81.783h113.308c0.592,0,1.073-0.475,1.073-1.062s-0.481-1.062-1.073-1.062H6.527
		c-0.592,0-1.073,0.475-1.073,1.062S5.935,81.783,6.527,81.783z"/>
	<path display="inline" fill="#BDC3C7" d="M6.527,45.783h113.308c0.592,0,1.073-0.475,1.073-1.062s-0.481-1.062-1.073-1.062H6.527
		c-0.592,0-1.073,0.475-1.073,1.062C5.454,45.308,5.935,45.783,6.527,45.783z"/>
	<path display="inline" fill="#BDC3C7" d="M6.527,50.783h113.308c0.592,0,1.073-0.475,1.073-1.062s-0.481-1.062-1.073-1.062H6.527
		c-0.592,0-1.073,0.475-1.073,1.062C5.454,50.308,5.935,50.783,6.527,50.783z"/>
</g>
<g id="Forma_1">
	<g>
		<path fill-rule="evenodd" clip-rule="evenodd" fill="#BDC3C7" d="M70.972,31.938l-2.187-0.6c-0.282-0.094-0.559-0.064-0.829,0.088
			c-0.271,0.153-0.453,0.382-0.547,0.688L54.252,77.651c-0.094,0.306-0.065,0.594,0.088,0.864c0.153,0.271,0.382,0.453,0.688,0.547
			l2.187,0.599c0.282,0.095,0.558,0.066,0.829-0.088c0.271-0.153,0.453-0.382,0.547-0.687l13.157-45.537
			c0.094-0.306,0.064-0.594-0.088-0.865C71.507,32.214,71.278,32.031,70.972,31.938z M51.255,40.827
			c0-0.306-0.118-0.576-0.353-0.811l-1.764-1.764c-0.235-0.235-0.506-0.353-0.811-0.353s-0.576,0.118-0.811,0.353L31.079,54.689
			c-0.236,0.235-0.353,0.506-0.353,0.811c0,0.306,0.118,0.576,0.353,0.811l16.437,16.437c0.235,0.235,0.505,0.353,0.811,0.353
			c0.306,0,0.576-0.118,0.811-0.353l1.764-1.763c0.235-0.235,0.353-0.506,0.353-0.812c0-0.305-0.118-0.576-0.353-0.811L37.04,55.5
			l13.862-13.862C51.138,41.403,51.255,41.133,51.255,40.827z M94.922,54.688L78.485,38.252c-0.235-0.235-0.506-0.353-0.811-0.353
			c-0.306,0-0.576,0.118-0.812,0.353l-1.763,1.764c-0.235,0.235-0.353,0.505-0.353,0.811s0.117,0.576,0.353,0.811L88.961,55.5
			L75.099,69.362c-0.235,0.235-0.353,0.506-0.353,0.811c0,0.306,0.117,0.577,0.353,0.812l1.763,1.763
			c0.236,0.235,0.506,0.353,0.812,0.353c0.305,0,0.576-0.118,0.811-0.353l16.437-16.437c0.235-0.235,0.352-0.506,0.352-0.812
			S95.157,54.923,94.922,54.688z"/>
	</g>
</g>
</svg>
