<?xml version="1.0" encoding="utf-8"?>
<!-- Generator: Adobe Illustrator 17.0.0, SVG Export Plug-In . SVG Version: 6.00 Build 0)  -->
<!DOCTYPE svg PUBLIC "-//W3C//DTD SVG 1.1//EN" "http://www.w3.org/Graphics/SVG/1.1/DTD/svg11.dtd">
<svg version="1.1" id="Layer_1" xmlns="http://www.w3.org/2000/svg" xmlns:xlink="http://www.w3.org/1999/xlink" x="0px" y="0px"
	 width="126px" height="95px" viewBox="0 0 126 95" enable-background="new 0 0 126 95" xml:space="preserve">
<rect fill="#EFF0F1" width="126" height="95"/>
<rect fill="#454545" width="45.167" height="95"/>
<circle fill="#2DB998" cx="9.285" cy="11.799" r="4.001"/>
<rect x="52.454" y="83.617" display="none" fill="#444444" width="67.199" height="4.327"/>
<rect x="52.454" y="8.662" display="none" fill="#2DB998" width="67.199" height="9.571"/>
<g display="none">
	<path display="inline" fill="#BDC3C7" d="M53.527,55.538h38.49c0.592,0,1.073-0.475,1.073-1.062s-0.481-1.062-1.073-1.062h-38.49
		c-0.592,0-1.073,0.475-1.073,1.062S52.935,55.538,53.527,55.538z"/>
	<path display="inline" fill="#BDC3C7" d="M53.527,45.538h38.49c0.592,0,1.073-0.475,1.073-1.062s-0.481-1.062-1.073-1.062h-38.49
		c-0.592,0-1.073,0.475-1.073,1.062S52.935,45.538,53.527,45.538z"/>
	<path display="inline" fill="#BDC3C7" d="M53.527,34.538h38.49c0.592,0,1.073-0.475,1.073-1.062s-0.481-1.062-1.073-1.062h-38.49
		c-0.592,0-1.073,0.475-1.073,1.062S52.935,34.538,53.527,34.538z"/>
	<path display="inline" fill="#BDC3C7" d="M53.527,39.783h65.308c0.592,0,1.073-0.475,1.073-1.062s-0.481-1.062-1.073-1.062H53.527
		c-0.592,0-1.073,0.475-1.073,1.062C52.454,39.308,52.935,39.783,53.527,39.783z"/>
	<path display="inline" fill="#BDC3C7" d="M53.527,50.783h65.308c0.592,0,1.073-0.475,1.073-1.062s-0.481-1.062-1.073-1.062H53.527
		c-0.592,0-1.073,0.475-1.073,1.062S52.935,50.783,53.527,50.783z"/>
	<path display="inline" fill="#BDC3C7" d="M53.527,65.783h65.308c0.592,0,1.073-0.475,1.073-1.062s-0.481-1.062-1.073-1.062H53.527
		c-0.592,0-1.073,0.475-1.073,1.062S52.935,65.783,53.527,65.783z"/>
	<path display="inline" fill="#BDC3C7" d="M53.527,70.783h65.308c0.592,0,1.073-0.475,1.073-1.062s-0.481-1.062-1.073-1.062H53.527
		c-0.592,0-1.073,0.475-1.073,1.062S52.935,70.783,53.527,70.783z"/>
	<path display="inline" fill="#BDC3C7" d="M53.527,60.783h65.308c0.592,0,1.073-0.475,1.073-1.062s-0.481-1.062-1.073-1.062H53.527
		c-0.592,0-1.073,0.475-1.073,1.062S52.935,60.783,53.527,60.783z"/>
	<path display="inline" fill="#BDC3C7" d="M53.527,80.783h65.308c0.592,0,1.073-0.475,1.073-1.062s-0.481-1.062-1.073-1.062H53.527
		c-0.592,0-1.073,0.475-1.073,1.062S52.935,80.783,53.527,80.783z"/>
	<path display="inline" fill="#BDC3C7" d="M53.527,75.783h65.308c0.592,0,1.073-0.475,1.073-1.062s-0.481-1.062-1.073-1.062H53.527
		c-0.592,0-1.073,0.475-1.073,1.062S52.935,75.783,53.527,75.783z"/>
	<path display="inline" fill="#BDC3C7" d="M53.527,24.783h65.308c0.592,0,1.073-0.475,1.073-1.062s-0.481-1.062-1.073-1.062H53.527
		c-0.592,0-1.073,0.475-1.073,1.062S52.935,24.783,53.527,24.783z"/>
	<path display="inline" fill="#BDC3C7" d="M53.527,29.783h65.308c0.592,0,1.073-0.475,1.073-1.062s-0.481-1.062-1.073-1.062H53.527
		c-0.592,0-1.073,0.475-1.073,1.062S52.935,29.783,53.527,29.783z"/>
</g>
<g>
	<path fill="#777879" d="M18.312,13.78h18.711c1.093,0,1.981-0.884,1.981-1.981c0-1.096-0.888-1.981-1.981-1.981H18.312
		c-1.093,0-1.981,0.884-1.981,1.981C16.332,12.894,17.22,13.78,18.312,13.78z"/>
</g>
<circle fill="#2DB998" cx="9.285" cy="28.799" r="4.001"/>
<g>
	<path fill="#777879" d="M18.312,30.78h18.711c1.093,0,1.981-0.884,1.981-1.981c0-1.096-0.888-1.981-1.981-1.981H18.312
		c-1.093,0-1.981,0.884-1.981,1.981C16.332,29.893,17.22,30.78,18.312,30.78z"/>
</g>
<circle fill="#2DB998" cx="9.285" cy="46.659" r="4.001"/>
<g>
	<path fill="#777879" d="M18.312,48.64h18.711c1.093,0,1.981-0.884,1.981-1.981c0-1.096-0.888-1.981-1.981-1.981H18.312
		c-1.093,0-1.981,0.884-1.981,1.981C16.332,47.753,17.22,48.64,18.312,48.64z"/>
</g>
<circle fill="#2DB998" cx="9.16" cy="64.849" r="4.001"/>
<g>
	<path fill="#777879" d="M18.187,66.83h18.711c1.093,0,1.981-0.884,1.981-1.981c0-1.096-0.888-1.981-1.981-1.981H18.187
		c-1.093,0-1.981,0.884-1.981,1.981C16.207,65.943,17.095,66.83,18.187,66.83z"/>
</g>
<circle fill="#2DB998" cx="9.16" cy="82.849" r="4.001"/>
<g>
	<path fill="#777879" d="M18.187,84.83h18.711c1.093,0,1.981-0.884,1.981-1.981c0-1.096-0.888-1.981-1.981-1.981H18.187
		c-1.093,0-1.981,0.884-1.981,1.981C16.207,83.943,17.095,84.83,18.187,84.83z"/>
</g>
<g id="Forma_1">
	<g>
		<path fill="#BDC3C7" d="M93.698,23.938l-2.187-0.6c-0.282-0.094-0.559-0.064-0.829,0.088c-0.271,0.153-0.453,0.382-0.547,0.688
			L76.978,69.651c-0.094,0.306-0.065,0.594,0.088,0.864c0.153,0.271,0.382,0.453,0.688,0.547l2.187,0.599
			c0.282,0.095,0.558,0.066,0.829-0.088c0.271-0.153,0.453-0.382,0.547-0.687l13.157-45.537c0.094-0.306,0.064-0.594-0.088-0.865
			C94.233,24.214,94.004,24.031,93.698,23.938z M73.981,32.827c0-0.306-0.118-0.576-0.353-0.811l-1.764-1.764
			c-0.235-0.235-0.506-0.353-0.811-0.353c-0.305,0-0.576,0.118-0.811,0.353L53.805,46.689c-0.236,0.235-0.353,0.506-0.353,0.811
			c0,0.306,0.118,0.576,0.353,0.811l16.437,16.437c0.235,0.235,0.505,0.353,0.811,0.353s0.576-0.118,0.811-0.353l1.764-1.763
			c0.235-0.235,0.353-0.506,0.353-0.812c0-0.305-0.118-0.576-0.353-0.811L59.766,47.5l13.862-13.862
			C73.864,33.403,73.981,33.133,73.981,32.827z M117.648,46.688l-16.437-16.436c-0.235-0.235-0.506-0.353-0.811-0.353
			c-0.306,0-0.576,0.118-0.812,0.353l-1.763,1.764c-0.235,0.235-0.353,0.505-0.353,0.811s0.117,0.576,0.353,0.811L111.687,47.5
			L97.825,61.362c-0.235,0.235-0.353,0.506-0.353,0.811c0,0.306,0.117,0.577,0.353,0.812l1.763,1.763
			c0.236,0.235,0.506,0.353,0.812,0.353c0.305,0,0.576-0.118,0.811-0.353l16.437-16.437c0.235-0.235,0.352-0.506,0.352-0.812
			S117.883,46.923,117.648,46.688z"/>
	</g>
</g>
</svg>
