<?xml version="1.0" encoding="utf-8"?>
<!-- Generator: Adobe Illustrator 17.0.0, SVG Export Plug-In . SVG Version: 6.00 Build 0)  -->
<!DOCTYPE svg PUBLIC "-//W3C//DTD SVG 1.1//EN" "http://www.w3.org/Graphics/SVG/1.1/DTD/svg11.dtd">
<svg version="1.1" id="Layer_1" xmlns="http://www.w3.org/2000/svg" xmlns:xlink="http://www.w3.org/1999/xlink" x="0px" y="0px"
	 width="126px" height="95px" viewBox="0 0 126 95" enable-background="new 0 0 126 95" xml:space="preserve">
<rect fill="#EFF0F1" width="126" height="95"/>
<rect fill="#454545" width="24.571" height="95"/>
<circle fill="#2DB998" cx="12.285" cy="11.641" r="4.001"/>
<circle fill="#2DB998" cx="12.285" cy="28.808" r="4.001"/>
<circle fill="#2DB998" cx="12.285" cy="46.659" r="4.001"/>
<circle fill="#2DB998" cx="12.285" cy="64.849" r="4.001"/>
<circle fill="#2DB998" cx="12.285" cy="82.849" r="4.001"/>
<rect x="30.454" y="83.617" fill="#444444" width="89.199" height="4.327"/>
<rect x="30.454" y="8.662" fill="#2DB998" width="89.199" height="9.571"/>
<g>
	<path fill="#BDC3C7" d="M31.527,55.538h60.49c0.592,0,1.073-0.475,1.073-1.062s-0.481-1.062-1.073-1.062h-60.49
		c-0.592,0-1.073,0.475-1.073,1.062S30.935,55.538,31.527,55.538z"/>
	<path fill="#BDC3C7" d="M31.527,45.538h60.49c0.592,0,1.073-0.475,1.073-1.062s-0.481-1.062-1.073-1.062h-60.49
		c-0.592,0-1.073,0.475-1.073,1.062S30.935,45.538,31.527,45.538z"/>
	<path fill="#BDC3C7" d="M31.527,34.538h60.49c0.592,0,1.073-0.475,1.073-1.062s-0.481-1.062-1.073-1.062h-60.49
		c-0.592,0-1.073,0.475-1.073,1.062S30.935,34.538,31.527,34.538z"/>
	<path fill="#BDC3C7" d="M31.527,39.783h87.308c0.592,0,1.073-0.475,1.073-1.062s-0.481-1.062-1.073-1.062H31.527
		c-0.592,0-1.073,0.475-1.073,1.062C30.454,39.308,30.935,39.783,31.527,39.783z"/>
	<path fill="#BDC3C7" d="M31.527,50.783h87.308c0.592,0,1.073-0.475,1.073-1.062s-0.481-1.062-1.073-1.062H31.527
		c-0.592,0-1.073,0.475-1.073,1.062S30.935,50.783,31.527,50.783z"/>
	<path fill="#BDC3C7" d="M31.527,65.783h87.308c0.592,0,1.073-0.475,1.073-1.062s-0.481-1.062-1.073-1.062H31.527
		c-0.592,0-1.073,0.475-1.073,1.062S30.935,65.783,31.527,65.783z"/>
	<path fill="#BDC3C7" d="M31.527,70.783h87.308c0.592,0,1.073-0.475,1.073-1.062s-0.481-1.062-1.073-1.062H31.527
		c-0.592,0-1.073,0.475-1.073,1.062S30.935,70.783,31.527,70.783z"/>
	<path fill="#BDC3C7" d="M31.527,60.783h87.308c0.592,0,1.073-0.475,1.073-1.062s-0.481-1.062-1.073-1.062H31.527
		c-0.592,0-1.073,0.475-1.073,1.062S30.935,60.783,31.527,60.783z"/>
	<path fill="#BDC3C7" d="M31.527,80.783h87.308c0.592,0,1.073-0.475,1.073-1.062s-0.481-1.062-1.073-1.062H31.527
		c-0.592,0-1.073,0.475-1.073,1.062S30.935,80.783,31.527,80.783z"/>
	<path fill="#BDC3C7" d="M31.527,75.783h87.308c0.592,0,1.073-0.475,1.073-1.062s-0.481-1.062-1.073-1.062H31.527
		c-0.592,0-1.073,0.475-1.073,1.062S30.935,75.783,31.527,75.783z"/>
	<path fill="#BDC3C7" d="M31.527,24.783h87.308c0.592,0,1.073-0.475,1.073-1.062s-0.481-1.062-1.073-1.062H31.527
		c-0.592,0-1.073,0.475-1.073,1.062S30.935,24.783,31.527,24.783z"/>
	<path fill="#BDC3C7" d="M31.527,29.783h87.308c0.592,0,1.073-0.475,1.073-1.062s-0.481-1.062-1.073-1.062H31.527
		c-0.592,0-1.073,0.475-1.073,1.062S30.935,29.783,31.527,29.783z"/>
</g>
</svg>
